<svg width="16" height="12" viewBox="0 0 16 12" fill="none" xmlns="http://www.w3.org/2000/svg">
<path fill-rule="evenodd" clip-rule="evenodd" d="M10.6667 6C10.6667 7.47276 9.47277 8.66667 8.00001 8.66667C6.52725 8.66667 5.33334 7.47276 5.33334 6C5.33334 4.52724 6.52725 3.33333 8.00001 3.33333C9.47277 3.33333 10.6667 4.52724 10.6667 6ZM9.33334 6C9.33334 6.73638 8.73639 7.33333 8.00001 7.33333C7.26363 7.33333 6.66668 6.73638 6.66668 6C6.66668 5.26362 7.26363 4.66667 8.00001 4.66667C8.73639 4.66667 9.33334 5.26362 9.33334 6Z" fill="#475569"/>
<path fill-rule="evenodd" clip-rule="evenodd" d="M8.00001 0C11.7277 0 14.8599 2.54955 15.748 6C14.8599 9.45046 11.7277 12 8.00001 12C4.27233 12 1.14013 9.45046 0.252045 6C1.14013 2.54955 4.27233 0 8.00001 0ZM8.00001 10.6667C5.0163 10.6667 2.48755 8.70542 1.63816 6C2.48756 3.29458 5.0163 1.33333 8.00001 1.33333C10.9837 1.33333 13.5125 3.29458 14.3619 6C13.5125 8.70542 10.9837 10.6667 8.00001 10.6667Z" fill="#475569"/>
</svg>
