<svg width="561" height="461" viewBox="0 0 561 461" fill="none" xmlns="http://www.w3.org/2000/svg">
<path opacity="0.25" d="M224.765 289.636C193.83 287.024 168.374 270.407 161.297 244.946C151.43 209.441 181.051 170.22 227.455 157.323C273.859 144.426 319.475 162.756 329.338 198.243C336.414 223.704 323.183 251.073 298.032 269.273L404.825 439.044C411.094 449.001 423 453.693 434.181 450.586L541.672 420.711C560.212 415.559 567.047 392.589 554.492 377.669L431.541 231.522C451.763 197.045 458.527 154.434 446.877 112.519C424.295 31.2671 341.228 -16.5841 261.316 5.62555L38.1907 67.6379C10.4697 75.3422 -5.6504 104.434 2.18312 132.619L108.027 513.452C111.984 527.69 126.554 536.083 140.557 532.192L201.697 515.199C212.86 512.097 220.655 501.929 220.888 490.165L224.765 289.636Z" fill="url(#paint0_linear_46_711)"/>
<defs>
<linearGradient id="paint0_linear_46_711" x1="344" y1="-44" x2="265" y2="432" gradientUnits="userSpaceOnUse">
<stop stop-color="white"/>
<stop offset="1" stop-color="white" stop-opacity="0"/>
</linearGradient>
</defs>
</svg>
